<svg width="300" height="300" viewBox="0 0 300 300" fill="none" xmlns="http://www.w3.org/2000/svg">
<rect width="300" height="300" rx="64" fill="url(#paint0_radial_49_3)"/>
<path d="M86.016 188H64L30.848 141.664V188H11.52V96.608H30.848V140.896L63.616 96.608H84.224L50.944 140.512L86.016 188Z" fill="white"/>
<path d="M141.804 111.456C138.135 111.456 134.849 112.181 131.948 113.632C129.132 115.083 126.743 117.173 124.78 119.904C122.817 122.549 121.324 125.792 120.3 129.632C119.361 133.472 118.892 137.781 118.892 142.56C118.892 149.045 119.66 154.592 121.196 159.2C122.817 163.723 125.335 167.179 128.748 169.568C132.161 171.957 136.513 173.152 141.804 173.152C145.559 173.152 149.271 172.725 152.94 171.872C156.695 171.019 160.748 169.824 165.1 168.288V184.544C161.089 186.165 157.121 187.36 153.196 188.128C149.271 188.896 144.876 189.28 140.012 189.28C130.625 189.28 122.86 187.36 116.716 183.52C110.657 179.595 106.177 174.133 103.276 167.136C100.375 160.053 98.924 151.819 98.924 142.432C98.924 135.52 99.8627 129.205 101.74 123.488C103.617 117.685 106.348 112.693 109.932 108.512C113.601 104.331 118.081 101.088 123.372 98.784C128.748 96.48 134.892 95.328 141.804 95.328C146.327 95.328 150.849 95.9253 155.372 97.12C159.98 98.2293 164.375 99.7653 168.556 101.728L162.284 117.472C158.871 115.851 155.415 114.443 151.916 113.248C148.503 112.053 145.132 111.456 141.804 111.456Z" fill="white"/>
<path d="M229.176 188L207.16 116.32H206.648C206.733 118.027 206.861 120.587 207.032 124C207.203 127.413 207.373 131.083 207.544 135.008C207.715 138.848 207.8 142.347 207.8 145.504V188H190.52V96.608H216.888L238.52 166.496H238.904L261.816 96.608H288.184V188H270.136V144.736C270.136 141.835 270.179 138.507 270.264 134.752C270.435 130.997 270.563 127.456 270.648 124.128C270.819 120.715 270.947 118.155 271.032 116.448H270.52L246.968 188H229.176Z" fill="white"/>
<defs>
<radialGradient id="paint0_radial_49_3" cx="0" cy="0" r="1" gradientUnits="userSpaceOnUse" gradientTransform="translate(150 150) rotate(90) scale(150)">
<stop stop-color="#FEB847"/>
<stop offset="1" stop-color="#DE6303"/>
</radialGradient>
</defs>
</svg>
