<svg width="113" height="42" viewBox="0 0 113 42" fill="none" xmlns="http://www.w3.org/2000/svg">
<path d="M10.711 17H7.61499L2.95299 10.484V17H0.23499V4.148H2.95299V10.376L7.56099 4.148H10.459L5.77899 10.322L10.711 17ZM16.7927 4.148C18.4487 4.148 19.6547 4.508 20.4107 5.228C21.1787 5.936 21.5627 6.914 21.5627 8.162C21.5627 8.726 21.4787 9.266 21.3107 9.782C21.1427 10.286 20.8607 10.742 20.4647 11.15C20.0807 11.546 19.5707 11.858 18.9347 12.086C18.2987 12.314 17.5127 12.428 16.5767 12.428H15.4067V17H12.6887V4.148H16.7927ZM16.6487 6.38H15.4067V10.196H16.3067C16.8227 10.196 17.2667 10.13 17.6387 9.998C18.0107 9.866 18.2987 9.656 18.5027 9.368C18.7067 9.08 18.8087 8.708 18.8087 8.252C18.8087 7.616 18.6347 7.148 18.2867 6.848C17.9387 6.536 17.3927 6.38 16.6487 6.38ZM31.321 17L30.385 13.94H25.705L24.769 17H21.835L26.371 4.094H29.701L34.255 17H31.321ZM28.801 8.666C28.741 8.462 28.663 8.204 28.567 7.892C28.471 7.58 28.375 7.262 28.279 6.938C28.183 6.614 28.105 6.332 28.045 6.092C27.985 6.332 27.901 6.632 27.793 6.992C27.697 7.34 27.601 7.676 27.505 8C27.421 8.312 27.355 8.534 27.307 8.666L26.389 11.654H29.737L28.801 8.666ZM41.6967 6.236C41.1807 6.236 40.7187 6.338 40.3107 6.542C39.9147 6.746 39.5787 7.04 39.3027 7.424C39.0267 7.796 38.8167 8.252 38.6727 8.792C38.5407 9.332 38.4747 9.938 38.4747 10.61C38.4747 11.522 38.5827 12.302 38.7987 12.95C39.0267 13.586 39.3807 14.072 39.8607 14.408C40.3407 14.744 40.9527 14.912 41.6967 14.912C42.2247 14.912 42.7467 14.852 43.2627 14.732C43.7907 14.612 44.3607 14.444 44.9727 14.228V16.514C44.4087 16.742 43.8507 16.91 43.2987 17.018C42.7467 17.126 42.1287 17.18 41.4447 17.18C40.1247 17.18 39.0327 16.91 38.1687 16.37C37.3167 15.818 36.6867 15.05 36.2787 14.066C35.8707 13.07 35.6667 11.912 35.6667 10.592C35.6667 9.62 35.7987 8.732 36.0627 7.928C36.3267 7.112 36.7107 6.41 37.2147 5.822C37.7307 5.234 38.3607 4.778 39.1047 4.454C39.8607 4.13 40.7247 3.968 41.6967 3.968C42.3327 3.968 42.9687 4.052 43.6047 4.22C44.2527 4.376 44.8707 4.592 45.4587 4.868L44.5767 7.082C44.0967 6.854 43.6107 6.656 43.1187 6.488C42.6387 6.32 42.1647 6.236 41.6967 6.236ZM58.5937 17H55.8757V11.456H50.7817V17H48.0637V4.148H50.7817V9.188H55.8757V4.148H58.5937V17ZM73.8513 10.556C73.8513 11.552 73.7253 12.458 73.4733 13.274C73.2333 14.078 72.8613 14.774 72.3573 15.362C71.8653 15.95 71.2293 16.4 70.4493 16.712C69.6813 17.024 68.7753 17.18 67.7313 17.18C66.6873 17.18 65.7753 17.024 64.9953 16.712C64.2273 16.388 63.5913 15.938 63.0873 15.362C62.5953 14.774 62.2233 14.072 61.9713 13.256C61.7313 12.44 61.6113 11.534 61.6113 10.538C61.6113 9.206 61.8273 8.048 62.2593 7.064C62.7033 6.08 63.3753 5.318 64.2753 4.778C65.1873 4.226 66.3453 3.95 67.7493 3.95C69.1413 3.95 70.2873 4.226 71.1873 4.778C72.0873 5.318 72.7533 6.086 73.1853 7.082C73.6293 8.066 73.8513 9.224 73.8513 10.556ZM64.4733 10.556C64.4733 11.456 64.5873 12.23 64.8153 12.878C65.0433 13.526 65.3973 14.024 65.8773 14.372C66.3573 14.72 66.9753 14.894 67.7313 14.894C68.5113 14.894 69.1353 14.72 69.6033 14.372C70.0833 14.024 70.4313 13.526 70.6473 12.878C70.8753 12.23 70.9893 11.456 70.9893 10.556C70.9893 9.2 70.7373 8.138 70.2333 7.37C69.7293 6.602 68.9013 6.218 67.7493 6.218C66.9813 6.218 66.3573 6.392 65.8773 6.74C65.3973 7.088 65.0433 7.586 64.8153 8.234C64.5873 8.882 64.4733 9.656 64.4733 10.556ZM86.5839 4.148V14.732H88.2939V20.744H85.6659V17H77.6199V20.744H74.9919V14.732H75.9819C76.3179 14.06 76.6419 13.352 76.9539 12.608C77.2659 11.864 77.5539 11.066 77.8179 10.214C78.0939 9.362 78.3399 8.438 78.5559 7.442C78.7719 6.434 78.9519 5.336 79.0959 4.148H86.5839ZM81.2559 6.416C81.1719 7.04 81.0519 7.706 80.8959 8.414C80.7399 9.11 80.5539 9.824 80.3379 10.556C80.1339 11.288 79.9059 12.008 79.6539 12.716C79.4019 13.424 79.1319 14.096 78.8439 14.732H83.8659V6.416H81.2559ZM98.494 17L97.558 13.94H92.878L91.942 17H89.008L93.544 4.094H96.874L101.428 17H98.494ZM95.974 8.666C95.914 8.462 95.836 8.204 95.74 7.892C95.644 7.58 95.548 7.262 95.452 6.938C95.356 6.614 95.278 6.332 95.218 6.092C95.158 6.332 95.074 6.632 94.966 6.992C94.87 7.34 94.774 7.676 94.678 8C94.594 8.312 94.528 8.534 94.48 8.666L93.562 11.654H96.91L95.974 8.666ZM107.52 4.148C109.176 4.148 110.382 4.508 111.138 5.228C111.906 5.936 112.29 6.914 112.29 8.162C112.29 8.726 112.206 9.266 112.038 9.782C111.87 10.286 111.588 10.742 111.192 11.15C110.808 11.546 110.298 11.858 109.662 12.086C109.026 12.314 108.24 12.428 107.304 12.428H106.134V17H103.416V4.148H107.52ZM107.376 6.38H106.134V10.196H107.034C107.55 10.196 107.994 10.13 108.366 9.998C108.738 9.866 109.026 9.656 109.23 9.368C109.434 9.08 109.536 8.708 109.536 8.252C109.536 7.616 109.362 7.148 109.014 6.848C108.666 6.536 108.12 6.38 107.376 6.38Z" fill="white"/>
<path d="M5.06999 27.76C4.57999 27.76 4.14499 27.85 3.76499 28.03C3.38499 28.21 3.05999 28.47 2.78999 28.81C2.52999 29.15 2.32999 29.56 2.18999 30.04C2.05999 30.52 1.99499 31.06 1.99499 31.66C1.99499 32.47 2.10499 33.165 2.32499 33.745C2.54499 34.315 2.87999 34.755 3.32999 35.065C3.78999 35.375 4.36499 35.53 5.05499 35.53C5.51499 35.53 5.95499 35.485 6.37499 35.395C6.80499 35.295 7.25499 35.165 7.72499 35.005V36.64C7.28499 36.82 6.83999 36.95 6.38999 37.03C5.94999 37.11 5.43999 37.15 4.85999 37.15C3.75999 37.15 2.84999 36.925 2.12999 36.475C1.40999 36.015 0.87499 35.375 0.52499 34.555C0.17499 33.725 -9.70438e-06 32.755 -9.70438e-06 31.645C-9.70438e-06 30.835 0.10999 30.095 0.32999 29.425C0.55999 28.755 0.88499 28.175 1.30499 27.685C1.73499 27.195 2.26499 26.815 2.89499 26.545C3.52499 26.275 4.24999 26.14 5.06999 26.14C5.60999 26.14 6.13999 26.205 6.65999 26.335C7.18999 26.455 7.68499 26.625 8.14499 26.845L7.48499 28.42C7.10499 28.25 6.70999 28.1 6.29999 27.97C5.89999 27.83 5.48999 27.76 5.06999 27.76ZM16.7215 30.325H14.0515V37H12.1765V30.325H9.52147V28.87H16.7215V30.325ZM23.1027 28.72C24.0527 28.72 24.8177 29.075 25.3977 29.785C25.9777 30.485 26.2677 31.53 26.2677 32.92C26.2677 33.84 26.1327 34.615 25.8627 35.245C25.5927 35.875 25.2177 36.35 24.7377 36.67C24.2577 36.99 23.6977 37.15 23.0577 37.15C22.6677 37.15 22.3227 37.1 22.0227 37C21.7227 36.89 21.4677 36.755 21.2577 36.595C21.0477 36.425 20.8677 36.245 20.7177 36.055H20.5977C20.6377 36.235 20.6677 36.44 20.6877 36.67C20.7077 36.89 20.7177 37.1 20.7177 37.3V40.6H18.8277V28.87H20.3577L20.6277 29.95H20.7177C20.8677 29.72 21.0477 29.515 21.2577 29.335C21.4777 29.145 21.7377 28.995 22.0377 28.885C22.3477 28.775 22.7027 28.72 23.1027 28.72ZM22.5627 30.25C22.1227 30.25 21.7677 30.34 21.4977 30.52C21.2277 30.69 21.0327 30.955 20.9127 31.315C20.7927 31.675 20.7277 32.125 20.7177 32.665V32.905C20.7177 33.485 20.7727 33.975 20.8827 34.375C21.0027 34.775 21.1977 35.08 21.4677 35.29C21.7477 35.5 22.1227 35.605 22.5927 35.605C22.9927 35.605 23.3177 35.495 23.5677 35.275C23.8277 35.055 24.0177 34.745 24.1377 34.345C24.2677 33.935 24.3327 33.45 24.3327 32.89C24.3327 32.05 24.1877 31.4 23.8977 30.94C23.6177 30.48 23.1727 30.25 22.5627 30.25ZM36.0323 32.92C36.0323 33.6 35.9423 34.2 35.7623 34.72C35.5823 35.24 35.3223 35.685 34.9823 36.055C34.6523 36.415 34.2423 36.69 33.7523 36.88C33.2723 37.06 32.7373 37.15 32.1473 37.15C31.5873 37.15 31.0723 37.06 30.6023 36.88C30.1323 36.69 29.7223 36.415 29.3723 36.055C29.0323 35.685 28.7673 35.24 28.5773 34.72C28.3873 34.2 28.2923 33.6 28.2923 32.92C28.2923 32.02 28.4473 31.26 28.7573 30.64C29.0673 30.01 29.5123 29.535 30.0923 29.215C30.6823 28.885 31.3773 28.72 32.1773 28.72C32.9373 28.72 33.6023 28.885 34.1723 29.215C34.7523 29.535 35.2073 30.01 35.5373 30.64C35.8673 31.26 36.0323 32.02 36.0323 32.92ZM30.2273 32.92C30.2273 33.49 30.2923 33.98 30.4223 34.39C30.5623 34.79 30.7723 35.095 31.0523 35.305C31.3423 35.515 31.7123 35.62 32.1623 35.62C32.6223 35.62 32.9923 35.515 33.2723 35.305C33.5623 35.095 33.7723 34.79 33.9023 34.39C34.0323 33.98 34.0973 33.49 34.0973 32.92C34.0973 32.34 34.0273 31.855 33.8873 31.465C33.7573 31.065 33.5473 30.765 33.2573 30.565C32.9773 30.355 32.6123 30.25 32.1623 30.25C31.4823 30.25 30.9873 30.48 30.6773 30.94C30.3773 31.4 30.2273 32.06 30.2273 32.92ZM45.8762 25.42C45.8262 25.93 45.6862 26.375 45.4562 26.755C45.2362 27.125 44.8912 27.41 44.4212 27.61C43.9512 27.81 43.3312 27.91 42.5612 27.91C41.7612 27.91 41.1312 27.81 40.6712 27.61C40.2212 27.41 39.8962 27.13 39.6962 26.77C39.4962 26.4 39.3762 25.95 39.3362 25.42H41.0462C41.0962 25.96 41.2362 26.325 41.4662 26.515C41.6962 26.695 42.0712 26.785 42.5912 26.785C43.0312 26.785 43.3862 26.69 43.6562 26.5C43.9362 26.3 44.1012 25.94 44.1512 25.42H45.8762ZM40.3562 32.74C40.3562 32.88 40.3462 33.06 40.3262 33.28C40.3162 33.49 40.3062 33.715 40.2962 33.955C40.2862 34.185 40.2712 34.395 40.2512 34.585C40.2412 34.765 40.2312 34.9 40.2212 34.99L44.1962 28.87H46.4762V37H44.6612V33.175C44.6612 32.945 44.6662 32.68 44.6762 32.38C44.6962 32.08 44.7162 31.795 44.7362 31.525C44.7562 31.245 44.7712 31.035 44.7812 30.895L40.8212 37H38.5412V28.87H40.3562V32.74ZM48.8089 34.1289C48.7406 34.1289 48.7064 34.0752 48.7064 33.9678C48.7064 33.4111 48.765 33.1328 48.8822 33.1328L52.4417 32.957C52.5003 32.957 52.5296 33.001 52.5296 33.0889C52.5296 33.333 52.5101 33.5283 52.471 33.6748C52.432 33.8115 52.4027 33.8896 52.3832 33.9092L52.3392 33.9678L48.8089 34.1289ZM59.5534 37L56.6134 28.225H56.5534C56.5634 28.425 56.5784 28.71 56.5984 29.08C56.6184 29.44 56.6334 29.835 56.6434 30.265C56.6634 30.685 56.6734 31.08 56.6734 31.45V37H54.9484V26.29H57.6184L60.4384 34.705H60.4984L63.4384 26.29H66.1084V37H64.2784V31.36C64.2784 31.02 64.2834 30.65 64.2934 30.25C64.3134 29.84 64.3284 29.455 64.3384 29.095C64.3584 28.725 64.3734 28.44 64.3834 28.24H64.3234L61.2634 37H59.5534ZM72.4941 28.72C73.5441 28.72 74.3391 28.95 74.8791 29.41C75.4291 29.86 75.7041 30.57 75.7041 31.54V37H74.3691L73.9941 35.875H73.9341C73.7041 36.165 73.4641 36.41 73.2141 36.61C72.9741 36.8 72.6941 36.935 72.3741 37.015C72.0641 37.105 71.6841 37.15 71.2341 37.15C70.7541 37.15 70.3191 37.06 69.9291 36.88C69.5491 36.7 69.2491 36.425 69.0291 36.055C68.8091 35.675 68.6991 35.2 68.6991 34.63C68.6991 33.79 69.0041 33.16 69.6141 32.74C70.2341 32.31 71.1691 32.075 72.4191 32.035L73.8291 31.99V31.585C73.8291 31.065 73.7041 30.695 73.4541 30.475C73.2041 30.255 72.8541 30.145 72.4041 30.145C71.9941 30.145 71.5991 30.205 71.2191 30.325C70.8391 30.445 70.4691 30.585 70.1091 30.745L69.5091 29.425C69.9091 29.215 70.3641 29.045 70.8741 28.915C71.3941 28.785 71.9341 28.72 72.4941 28.72ZM72.8391 33.19C72.0091 33.22 71.4341 33.365 71.1141 33.625C70.7941 33.875 70.6341 34.215 70.6341 34.645C70.6341 35.025 70.7491 35.3 70.9791 35.47C71.2091 35.64 71.5041 35.725 71.8641 35.725C72.4141 35.725 72.8791 35.57 73.2591 35.26C73.6391 34.94 73.8291 34.47 73.8291 33.85V33.16L72.8391 33.19ZM81.9124 37.15C81.1424 37.15 80.4724 37.005 79.9024 36.715C79.3424 36.415 78.9074 35.96 78.5974 35.35C78.2974 34.73 78.1474 33.94 78.1474 32.98C78.1474 31.98 78.3124 31.17 78.6424 30.55C78.9824 29.92 79.4474 29.46 80.0374 29.17C80.6274 28.87 81.3024 28.72 82.0624 28.72C82.5724 28.72 83.0274 28.77 83.4274 28.87C83.8274 28.97 84.1674 29.09 84.4474 29.23L83.8924 30.715C83.5824 30.595 83.2724 30.495 82.9624 30.415C82.6524 30.325 82.3524 30.28 82.0624 30.28C81.6124 30.28 81.2374 30.38 80.9374 30.58C80.6474 30.78 80.4324 31.08 80.2924 31.48C80.1524 31.87 80.0824 32.365 80.0824 32.965C80.0824 33.545 80.1524 34.03 80.2924 34.42C80.4424 34.81 80.6624 35.105 80.9524 35.305C81.2424 35.495 81.6024 35.59 82.0324 35.59C82.4924 35.59 82.8974 35.535 83.2474 35.425C83.5974 35.315 83.9274 35.165 84.2374 34.975V36.61C83.9274 36.8 83.5924 36.935 83.2324 37.015C82.8824 37.105 82.4424 37.15 81.9124 37.15ZM93.0121 30.325H90.3421V37H88.4671V30.325H85.8121V28.87H93.0121V30.325ZM98.2418 28.72C98.9718 28.72 99.5968 28.87 100.117 29.17C100.647 29.46 101.057 29.88 101.347 30.43C101.637 30.97 101.782 31.63 101.782 32.41V33.37H96.4118C96.4318 34.11 96.6368 34.685 97.0268 35.095C97.4168 35.495 97.9568 35.695 98.6468 35.695C99.1768 35.695 99.6468 35.645 100.057 35.545C100.477 35.435 100.907 35.28 101.347 35.08V36.595C100.947 36.785 100.532 36.925 100.102 37.015C99.6718 37.105 99.1568 37.15 98.5568 37.15C97.7668 37.15 97.0618 37 96.4418 36.7C95.8318 36.39 95.3518 35.925 95.0018 35.305C94.6618 34.685 94.4918 33.915 94.4918 32.995C94.4918 32.065 94.6468 31.285 94.9568 30.655C95.2768 30.015 95.7168 29.535 96.2768 29.215C96.8368 28.885 97.4918 28.72 98.2418 28.72ZM98.2418 30.115C97.7418 30.115 97.3318 30.28 97.0118 30.61C96.7018 30.93 96.5168 31.41 96.4568 32.05H99.9518C99.9518 31.67 99.8868 31.335 99.7568 31.045C99.6368 30.755 99.4518 30.53 99.2018 30.37C98.9518 30.2 98.6318 30.115 98.2418 30.115ZM108.518 28.72C109.468 28.72 110.233 29.075 110.813 29.785C111.393 30.485 111.683 31.53 111.683 32.92C111.683 33.84 111.548 34.615 111.278 35.245C111.008 35.875 110.633 36.35 110.153 36.67C109.673 36.99 109.113 37.15 108.473 37.15C108.083 37.15 107.738 37.1 107.438 37C107.138 36.89 106.883 36.755 106.673 36.595C106.463 36.425 106.283 36.245 106.133 36.055H106.013C106.053 36.235 106.083 36.44 106.103 36.67C106.123 36.89 106.133 37.1 106.133 37.3V40.6H104.243V28.87H105.773L106.043 29.95H106.133C106.283 29.72 106.463 29.515 106.673 29.335C106.893 29.145 107.153 28.995 107.453 28.885C107.763 28.775 108.118 28.72 108.518 28.72ZM107.978 30.25C107.538 30.25 107.183 30.34 106.913 30.52C106.643 30.69 106.448 30.955 106.328 31.315C106.208 31.675 106.143 32.125 106.133 32.665V32.905C106.133 33.485 106.188 33.975 106.298 34.375C106.418 34.775 106.613 35.08 106.883 35.29C107.163 35.5 107.538 35.605 108.008 35.605C108.408 35.605 108.733 35.495 108.983 35.275C109.243 35.055 109.433 34.745 109.553 34.345C109.683 33.935 109.748 33.45 109.748 32.89C109.748 32.05 109.603 31.4 109.313 30.94C109.033 30.48 108.588 30.25 107.978 30.25Z" fill="white"/>
<path d="M0.86499 23L111.865 23" stroke="white" stroke-linecap="square"/>
</svg>
