<svg width="41" height="17" viewBox="0 0 41 17" fill="none" xmlns="http://www.w3.org/2000/svg">
<path d="M11.846 14H8.75L4.088 7.484V14H1.37V1.148H4.088V7.376L8.696 1.148H11.594L6.914 7.322L11.846 14ZM18.9262 3.236C18.4102 3.236 17.9482 3.338 17.5402 3.542C17.1442 3.746 16.8082 4.04 16.5322 4.424C16.2562 4.796 16.0462 5.252 15.9022 5.792C15.7702 6.332 15.7042 6.938 15.7042 7.61C15.7042 8.522 15.8122 9.302 16.0282 9.95C16.2562 10.586 16.6102 11.072 17.0902 11.408C17.5702 11.744 18.1822 11.912 18.9262 11.912C19.4542 11.912 19.9762 11.852 20.4922 11.732C21.0202 11.612 21.5902 11.444 22.2022 11.228V13.514C21.6382 13.742 21.0802 13.91 20.5282 14.018C19.9762 14.126 19.3582 14.18 18.6742 14.18C17.3542 14.18 16.2622 13.91 15.3982 13.37C14.5462 12.818 13.9162 12.05 13.5082 11.066C13.1002 10.07 12.8962 8.912 12.8962 7.592C12.8962 6.62 13.0282 5.732 13.2922 4.928C13.5562 4.112 13.9402 3.41 14.4442 2.822C14.9602 2.234 15.5902 1.778 16.3342 1.454C17.0902 1.13 17.9542 0.967999 18.9262 0.967999C19.5622 0.967999 20.1982 1.052 20.8342 1.22C21.4822 1.376 22.1002 1.592 22.6882 1.868L21.8062 4.082C21.3262 3.854 20.8402 3.656 20.3482 3.488C19.8682 3.32 19.3942 3.236 18.9262 3.236ZM30.7291 14L27.6331 3.92H27.5611C27.5731 4.16 27.5911 4.52 27.6151 5C27.6391 5.48 27.6631 5.996 27.6871 6.548C27.7111 7.088 27.7231 7.58 27.7231 8.024V14H25.2931V1.148H29.0011L32.0431 10.976H32.0971L35.3191 1.148H39.0271V14H36.4891V7.916C36.4891 7.508 36.4951 7.04 36.5071 6.512C36.5311 5.984 36.5491 5.486 36.5611 5.018C36.5851 4.538 36.6031 4.178 36.6151 3.938H36.5431L33.2311 14H30.7291Z" fill="white"/>
</svg>
